<?xml version="1.0" encoding="utf-8"?>
<!-- Generator: Adobe Illustrator 16.0.0, SVG Export Plug-In . SVG Version: 6.00 Build 0)  -->
<!DOCTYPE svg PUBLIC "-//W3C//DTD SVG 1.1//EN" "http://www.w3.org/Graphics/SVG/1.1/DTD/svg11.dtd">
<svg version="1.1" id="Calque_1" xmlns="http://www.w3.org/2000/svg" xmlns:xlink="http://www.w3.org/1999/xlink" x="0px" y="0px"
	 width="432px" height="432px" viewBox="0 0 432 432" enable-background="new 0 0 432 432" xml:space="preserve">
<g>
	<g>
		<path d="M177.252,256.087c0.307-0.518,0.342-0.973,0.457-1.396c1.096-4.053,2.639-7.918,4.807-11.521
			c1.188-1.974,2.486-3.864,4.293-5.346c1.814-1.491,3.844-2.383,6.246-2.203c1.936,0.145,3.621,0.915,5.139,2.098
			c3.154,2.458,5.191,5.698,6.625,9.374c0.783,2.008,1.377,4.063,1.654,6.204c0.045,0.354,0.064,0.712,0.102,1.067
			c0.033,0.344,0.139,0.544,0.568,0.442c1.77-0.424,3.51-0.942,5.199-1.624c0.396-0.16,0.438-0.448,0.422-0.788
			c-0.137-2.702,0.238-5.366,0.789-7.987c0.682-3.242,1.672-6.406,3.459-9.246c0.984-1.561,2.191-2.947,3.938-3.655
			c1.906-0.773,3.752-0.478,5.072,1.203c1.076,1.369,1.295,2.994,1.248,4.657c-0.111,3.965-1.529,7.436-4.096,10.446
			c-1.127,1.323-2.389,2.513-3.814,3.499c-0.607,0.418-0.789,0.916-0.77,1.577c0.033,1.103,0.066,2.205,0.094,3.308
			c0.07,2.937,0.469,5.819,1.441,8.603c0.236,0.677,0.563,1.306,0.975,1.901c1.213,1.762,3.01,1.937,4.666,1.374
			c1.596-0.542,2.891-1.531,4.072-2.685c1.922-1.874,3.346-4.109,4.631-6.441c1.807-3.273,3.221-6.721,4.555-10.203
			c2.703-7.061,4.742-14.316,6.281-21.715c0.254-1.226,0.52-2.451,0.723-3.686c0.217-1.301,0.053-2.621,0.113-3.931
			c0.016-0.355-0.139-0.483-0.488-0.406c-0.523,0.115-1.055,0.204-1.576,0.325c-2.035,0.468-4.086,0.846-6.15,1.143
			c-0.768,0.11-1.541,0.162-2.313,0.227c-0.236,0.021-0.479,0.01-0.715-0.011c-0.867-0.077-1.332-0.4-1.426-0.977
			c-0.086-0.528,0.215-0.938,1-1.307c1.979-0.93,4.086-1.484,6.17-2.104c1.6-0.475,3.213-0.908,4.814-1.372
			c0.797-0.23,0.822-0.241,0.846-1.092c0.029-1.013,0.033-2.026,0.078-3.039c0.119-2.678,0.23-5.357,0.283-8.038
			c0.051-2.571,0.375-5.108,0.768-7.643c0.115-0.74,0.324-1.455,0.521-2.171c0.146-0.526,0.49-0.957,0.916-1.298
			c0.924-0.737,2.17-0.532,2.932,0.421c0.623,0.782,0.664,1.729,0.717,2.631c0.123,2.051,0.24,4.113,0.154,6.163
			c-0.102,2.38-0.098,4.763-0.229,7.143c-0.084,1.488-0.068,2.981-0.084,4.472c-0.006,0.625,0.035,0.66,0.672,0.548
			c1.291-0.227,2.572-0.507,3.85-0.782c2.48-0.534,4.984-0.916,7.48-1.333c2.354-0.394,4.732-0.593,7.094-0.916
			c0.207-0.028,0.412-0.086,0.619-0.094c0.42-0.018,0.615-0.204,0.699-0.636c0.721-3.687,1.521-7.359,2.113-11.069
			c0.242-1.526,0.27-3.086,0.436-4.626c0.24-2.224,0.697-4.415,1.102-6.612c0.082-0.437,0.209-0.875,0.381-1.284
			c0.557-1.323,2.217-1.558,3.158-0.47c0.617,0.71,0.842,1.559,0.914,2.47c0.262,3.246,0.258,6.498,0.096,9.745
			c-0.16,3.273-0.43,6.541-0.641,9.812c-0.029,0.443-0.004,0.889-0.004,1.375c0.342,0,0.658,0.035,0.967-0.004
			c3.488-0.446,6.963-0.986,10.463-1.355c1.688-0.178,3.371-0.412,5.068-0.502c0.504-0.027,1.014,0.003,1.52,0.022
			c0.697,0.027,1.195,0.387,1.441,1.024c0.242,0.629,0.131,1.237-0.318,1.757c-0.492,0.568-1.154,0.847-1.859,1
			c-1.543,0.333-3.109,0.538-4.672,0.757c-2.037,0.285-4.072,0.581-6.109,0.872c-2.004,0.286-4.008,0.575-6.014,0.858
			c-0.773,0.109-0.789,0.104-0.816,0.867c-0.09,2.592-0.189,5.184-0.25,7.776c-0.072,3.1-0.137,6.2-0.15,9.301
			c-0.016,3.548-0.033,7.097,0.094,10.646c0.113,3.154,0.348,6.298,0.568,9.445c0.232,3.275,0.635,6.525,1.309,9.739
			c0.361,1.726,0.896,3.4,1.797,4.937c0.045,0.078,0.082,0.16,0.133,0.233c1.02,1.471,1.834,1.58,3.275,0.92
			c0.6-0.275,1.119-0.678,1.609-1.118c2.273-2.053,3.875-4.588,5.254-7.286c0.156-0.304,0.133-0.51-0.057-0.806
			c-1.641-2.571-2.945-5.293-3.846-8.224c-0.588-1.913-1.094-3.837-1.469-5.799c-0.537-2.787-0.82-5.592-0.854-8.435
			c-0.031-2.37,0.193-4.698,0.779-6.987c0.453-1.77,1.086-3.475,2.217-4.945c0.512-0.666,1.1-1.255,1.873-1.627
			c1.416-0.678,2.777-0.407,3.789,0.793c1.096,1.305,1.703,2.857,2.203,4.46c1.01,3.25,1.342,6.599,1.402,9.979
			c0.084,4.548-0.271,9.061-1.258,13.51c-0.219,0.989-0.496,1.966-0.766,2.943c-0.08,0.296-0.119,0.536,0.061,0.838
			c0.996,1.685,2.18,3.199,3.762,4.375c1.039,0.774,2.182,1.385,3.449,1.636c1.701,0.336,3.244-0.147,4.621-1.188
			c1.438-1.087,2.432-2.532,3.25-4.103c1.621-3.118,2.281-6.443,2.041-9.948c-0.008-0.119-0.012-0.24-0.037-0.355
			c-0.119-0.521,0.016-1.188-0.348-1.541c-0.346-0.335-0.973-0.06-1.473-0.09c-1.422-0.085-2.686-0.484-3.619-1.659
			c-1.004-1.265-1.145-3.068-0.299-4.437c0.977-1.576,3.057-1.818,4.594-0.529c0.93,0.781,1.588,1.766,2.111,2.852
			c0.334,0.692,0.344,0.698,1.07,0.426c1.707-0.641,3.305-1.512,4.908-2.369c1.766-0.943,3.563-1.794,5.531-2.25
			c3.537-0.819,7.082,0.482,8.904,3.682c0.953,1.671,1.424,3.464,1.74,5.314c0.459,2.684,0.432,5.399,0.467,8.111
			c0.023,1.698,0.113,3.396,0.223,5.092c0.117,1.813,0.213,3.633,0.471,5.429c0.262,1.826,0.668,3.632,1.1,5.43
			c0.291,1.218,0.639,2.417,1.047,3.599c0.129,0.37,0.301,0.71,0.496,1.047c0.484,0.835,0.391,1.766-0.219,2.497
			c-0.602,0.721-1.539,0.996-2.422,0.709c-0.645-0.21-1.182-0.597-1.568-1.139c-0.697-0.972-1.195-2.046-1.582-3.183
			c-0.654-1.921-1.209-3.869-1.654-5.847c-0.5-2.235-1.158-4.438-1.496-6.707c-0.303-2.038-0.354-4.098-0.357-6.159
			c-0.004-2.949-0.047-5.902-0.553-8.815c-0.207-1.202-0.65-2.35-1.281-3.414c-0.355-0.603-0.867-0.971-1.535-1.135
			c-0.885-0.216-1.771-0.196-2.666-0.06c-1.75,0.267-3.418,0.826-5.064,1.444c-1.256,0.473-2.504,0.964-3.797,1.324
			c-0.492,0.137-0.582,0.37-0.484,0.833c0.584,2.776,0.572,5.57,0.141,8.36c-0.578,3.737-1.936,7.133-4.629,9.874
			c-1.807,1.836-3.938,3.124-6.57,3.28c-2.342,0.14-4.547-0.41-6.605-1.576c-1.385-0.787-2.617-1.756-3.768-2.845
			c-0.123-0.115-0.209-0.299-0.475-0.292c-0.543,0.957-1.072,1.952-1.656,2.912c-1.121,1.836-2.344,3.598-3.93,5.078
			c-0.551,0.512-1.15,0.949-1.785,1.34c-2.096,1.289-4.602,1.106-6.566-0.542c-1.326-1.113-2.307-2.494-3.078-4.021
			c-1.613-3.192-2.604-6.579-3.189-10.104c-0.326-1.969-0.658-3.936-0.842-5.921c-0.16-1.719-0.238-3.446-0.311-5.172
			c-0.08-1.906-0.133-3.813-0.16-5.721c-0.035-2.562-0.059-5.125-0.039-7.688c0.025-2.919,0.094-5.839,0.168-8.758
			c0.057-2.234,0.156-4.467,0.234-6.701c0.006-0.215,0.18-0.509-0.176-0.595c-0.379-0.091-0.535,0.156-0.602,0.488
			c-0.236,1.2-0.477,2.399-0.711,3.599c-1.066,5.444-2.295,10.852-3.631,16.235c-1.373,5.526-2.779,11.043-4.494,16.474
			c-1.738,5.504-3.92,10.82-6.945,15.761c-0.561,0.919-1.211,1.775-1.973,2.537c-1.012,1.012-2.203,1.277-3.344,0.722
			c-0.715-0.348-1.223-0.94-1.631-1.614c-0.764-1.261-1.264-2.634-1.658-4.043c-0.746-2.672-1.342-5.38-1.672-8.137
			c-0.342-2.87-0.648-5.741-0.838-8.631c-0.215-3.277-0.184-6.555-0.287-9.831c-0.053-1.603-0.002-3.208,0-4.813
			c0-0.166,0.078-0.357-0.191-0.498c-0.326,1.305-0.635,2.596-0.971,3.879c-1.584,6.063-3.41,12.048-5.805,17.846
			c-1.564,3.784-3.367,7.444-5.85,10.729c-1.633,2.16-3.473,4.106-5.865,5.437c-3.338,1.858-6.475,1.527-9.107-0.829
			c-1.809-1.618-2.967-3.703-3.807-5.977c-0.654-1.771-1.039-3.601-1.361-5.448c-0.133-0.762-0.195-1.536-0.277-2.306
			c-0.039-0.39-0.188-0.521-0.582-0.37c-1.59,0.612-3.223,1.084-4.881,1.463c-0.484,0.111-0.592,0.342-0.578,0.807
			c0.076,2.706-0.262,5.359-1.182,7.914c-1.508,4.186-4.076,7.517-7.99,9.736c-1.17,0.665-2.395,1.193-3.723,1.469
			c-1.766,0.366-3.459,0.207-5.002-0.749c-1.793-1.11-2.637-2.824-2.703-4.878c-0.119-3.574,1.203-6.646,3.52-9.308
			c1.961-2.257,4.545-3.53,7.324-4.451c1.273-0.421,2.57-0.766,3.881-1.056c0.852-0.188,0.889-0.204,0.795-1.118
			c-0.275-2.675-0.729-5.307-1.707-7.837c-0.859-2.222-2.023-4.25-3.551-6.067c-0.855-1.016-1.871-1.868-3.113-2.351
			c-2.076-0.808-3.93-0.2-5.602,1.097c-1.902,1.475-3.199,3.444-4.326,5.528c-1.914,3.537-3.193,7.317-4.16,11.206
			c-0.684,2.751-1.211,5.534-1.531,8.353c-0.148,1.311-0.006,2.62,0.002,3.93c0.01,1.788,0.035,3.575-0.123,5.358
			c-0.018,0.208-0.021,0.421-0.076,0.62c-0.178,0.664-0.768,1.157-1.404,1.205c-0.625,0.046-1.303-0.365-1.551-1.005
			c-0.16-0.415-0.268-0.855-0.35-1.294c-0.637-3.368-1.314-6.729-1.857-10.114c-0.438-2.738-0.82-5.484-1.164-8.234
			c-0.234-1.889-0.375-3.79-0.559-5.686c-0.197-2.046-0.402-4.091-0.592-6.138c-0.123-1.333-0.215-2.67-0.338-4.003
			c-0.162-1.748-0.354-3.493-0.512-5.24c-0.211-2.344-0.408-4.688-0.6-7.034c-0.18-2.197-0.344-4.396-0.514-6.58
			c-0.1-0.066-0.195-0.07-0.25,0.006c-1.223,1.655-2.51,3.264-3.477,5.095c-0.209,0.397-0.422,0.775-0.406,1.254
			c0.014,0.388-0.203,0.682-0.568,0.834c-0.4,0.167-0.762,0.061-1.082-0.208c-0.396-0.334-0.531-0.779-0.49-1.284
			c0.063-0.786,0.322-1.513,0.676-2.208c1.049-2.055,2.383-3.921,3.791-5.74c0.527-0.682,1.314-1.262,1.512-2.076
			c0.195-0.807-0.035-1.713-0.057-2.576c-0.068-2.651-0.195-5.299-0.211-7.953c-0.01-1.521,0.006-3.04,0.074-4.557
			c0.107-2.44,0.363-4.865,0.75-7.279c0.264-1.652,0.625-3.277,1.064-4.887c0.404-1.479,1.053-2.854,1.943-4.103
			c0.457-0.64,1.055-1.157,1.824-1.379c1.238-0.36,2.205,0.141,3.018,1.053c1.016,1.137,1.664,2.479,2.086,3.917
			c1.209,4.12,1.607,8.319,0.883,12.566c-0.615,3.6-1.994,6.921-4.012,9.972c-0.197,0.298-0.355,0.634-0.598,0.889
			c-0.744,0.775-0.877,1.667-0.785,2.71c0.195,2.196,0.266,4.403,0.418,6.604c0.219,3.151,0.471,6.3,0.697,9.45
			c0.115,1.574,0.328,3.14,0.438,4.711c0.23,3.298,0.668,6.572,0.961,9.862c0.307,3.441,0.602,6.883,0.902,10.325
			C177.148,255.813,177.191,255.896,177.252,256.087z M252.221,259.326c-0.018,1.627,0.066,3.589,0.357,5.539
			c0.123,0.827,0.254,1.654,0.643,2.407c0.266,0.513,0.424,0.555,0.914,0.267c0.607-0.356,1.016-0.916,1.426-1.465
			c1.125-1.514,1.996-3.178,2.785-4.885c2.355-5.094,4.244-10.367,5.879-15.729c2.627-8.612,4.764-17.35,6.529-26.178
			c0.297-1.489,0.617-2.975,0.912-4.464c0.092-0.466,0.006-0.548-0.439-0.505c-0.176,0.017-0.35,0.074-0.525,0.103
			c-2.705,0.446-5.41,0.885-8.113,1.337c-1.734,0.289-3.473,0.548-5.191,0.911c-1.428,0.301-2.861,0.563-4.295,0.833
			c-0.844,0.159-0.904,0.204-0.918,1.089c-0.039,2.861-0.096,5.722-0.125,8.583c-0.029,3.1-0.064,6.2-0.047,9.3
			c0.025,4.229,0.137,8.458,0.135,12.686C252.145,252.432,252.152,255.708,252.221,259.326z M201.66,257.914
			c-0.143,0-0.229-0.014-0.307,0.002c-1.934,0.364-3.848,0.823-5.674,1.553c-2.32,0.927-4.246,2.393-5.666,4.471
			c-1.365,1.999-2.131,4.181-1.922,6.638c0.066,0.751,0.256,1.47,0.676,2.104c0.596,0.898,1.436,1.325,2.514,1.196
			c0.742-0.088,1.451-0.311,2.123-0.647c2.504-1.255,4.301-3.243,5.754-5.58c1.113-1.794,1.758-3.772,2.123-5.837
			C201.508,260.536,201.682,259.246,201.66,257.914z M296.348,251.371c0.213-0.188,0.23-0.372,0.277-0.542
			c0.881-3.23,1.445-6.517,1.676-9.857c0.254-3.671,0.197-7.329-0.6-10.944c-0.34-1.553-0.852-3.04-1.734-4.379
			c-0.314-0.477-0.689-0.897-1.121-1.271c-0.238-0.206-0.408-0.169-0.57,0.097c-0.221,0.362-0.344,0.761-0.455,1.162
			c-0.865,3.127-1.105,6.333-1.033,9.554c0.057,2.472,0.398,4.926,0.928,7.346C294.371,245.533,295.127,248.499,296.348,251.371z
			 M173.588,208.622c0.174-0.211,0.262-0.292,0.318-0.391c0.314-0.541,0.627-1.083,0.93-1.631c2.162-3.946,3.193-8.137,2.695-12.647
			c-0.234-2.118-0.688-4.177-1.779-6.043c-0.309-0.526-0.65-1.034-1.24-1.372c-0.4,0.722-0.455,1.465-0.566,2.195
			c-0.256,1.683-0.303,3.382-0.414,5.077c-0.143,2.171-0.137,4.344-0.123,6.518c0.012,1.668-0.002,3.338,0.033,5.006
			C173.465,206.368,173.369,207.41,173.588,208.622z M218.928,249.349c0.51-0.456,0.875-0.752,1.207-1.083
			c0.783-0.779,1.518-1.605,2.148-2.513c1.633-2.345,2.512-4.922,2.365-7.808c-0.037-0.752-0.182-1.481-0.52-2.158
			c-0.34-0.676-0.627-0.728-1.133-0.188c-0.492,0.525-0.875,1.132-1.176,1.786c-1.049,2.286-1.775,4.67-2.182,7.154
			C219.389,246.064,219.014,247.571,218.928,249.349z M313.586,240.346c-0.285-0.948-0.895-1.862-1.502-2.276
			c-0.551-0.375-0.893-0.221-0.934,0.447c-0.041,0.67,0.199,1.222,0.814,1.553C312.471,240.34,313.01,240.404,313.586,240.346z"/>
		<path d="M111.855,150.639c-0.371,2.203-0.752,4.404-1.105,6.609c-0.736,4.591-1.414,9.193-2.322,13.755
			c-0.711,3.57-1.666,7.079-2.764,10.549c-0.889,2.815-1.883,5.592-2.984,8.332c-1.281,3.19-2.756,6.282-4.789,9.073
			c-1.461,2.007-3.086,3.862-5.184,5.256c-2.541,1.687-5.285,2.11-8.197,1.281c-2.15-0.612-3.99-1.778-5.703-3.229
			c-2.676-2.265-4.57-5.097-6.158-8.147c-0.959-1.846-1.711-3.803-2.41-5.771c-0.76-2.136-1.381-4.311-1.869-6.523
			c-0.455-2.066-0.889-4.135-1.123-6.243c-0.166-1.508-0.449-3.004-0.596-4.513c-0.096-0.976-0.203-1.955-0.26-2.933
			c-0.143-2.497-0.252-4.994-0.24-7.498c0.021-4.45,0.33-8.869,1.029-13.267c0.482-3.042,1.195-6.024,2.146-8.948
			c0.951-2.93,2.127-5.765,3.965-8.273c1.521-2.078,3.346-3.806,5.762-4.816c2.133-0.892,4.363-1.189,6.654-1.015
			c5.568,0.421,10.369,2.763,14.809,5.985c0.193,0.141,0.383,0.285,0.58,0.42c0.07,0.048,0.158,0.072,0.316,0.141
			c0.057-0.559-0.203-1.01-0.363-1.45c-1.24-3.451-2.301-6.958-3.279-10.49c-0.541-1.952-0.979-3.933-1.42-5.91
			c-0.422-1.889-0.773-3.792-1.135-5.693c-0.416-2.2-0.682-4.419-0.957-6.637c-0.449-3.614-0.701-7.236-0.521-10.886
			c0.088-1.757,0.152-3.517,0.422-5.251c0.465-2.979,1.121-5.924,2.516-8.631c0.529-1.028,1.182-1.998,2.127-2.734
			c1.23-0.96,2.592-1.134,4.047-0.725c1.545,0.434,2.748,1.429,3.828,2.545c3.137,3.237,5.633,6.925,7.66,10.948
			c1.539,3.052,2.656,6.244,3.473,9.556c0.234,0.952,0.582,1.877,0.725,2.856c0.092,0.661,0.1,1.314-0.189,1.93
			c-0.467,0.998-1.383,1.17-2.172,0.41c-0.461-0.445-0.744-1.01-0.936-1.609c-0.541-1.703-1.07-3.41-1.58-5.122
			c-0.795-2.664-1.813-5.235-3.07-7.713c-0.932-1.839-1.992-3.603-3.203-5.268c-1.283-1.763-2.689-3.428-4.475-4.716
			c-1.082-0.783-1.447-0.833-2.125,0.636c-0.361,0.783-0.58,1.624-0.764,2.472c-0.49,2.247-0.752,4.517-0.912,6.81
			c-0.314,4.541,0.043,9.052,0.447,13.566c0.242,2.702,0.662,5.384,1.086,8.057c0.523,3.293,1.117,6.577,1.766,9.851
			c0.68,3.419,1.406,6.828,2.107,10.242c0.342,1.665,0.744,3.317,1.133,4.971c0.119,0.502,0.152,1.006,0.107,1.51
			c-0.115,1.26-1.309,1.968-2.473,1.495c-0.857-0.347-1.459-1.028-2.119-1.623c-2.266-2.043-4.639-3.938-7.355-5.36
			c-2.84-1.486-5.848-2.393-9.066-2.446c-2.635-0.043-5.092,0.563-7.168,2.297c-1.398,1.167-2.393,2.648-3.209,4.256
			c-1.57,3.089-2.463,6.387-2.99,9.794c-0.789,5.092-0.85,10.211-0.639,15.35c0.086,2.117,0.373,4.213,0.471,6.327
			c0.039,0.858,0.193,1.713,0.316,2.566c0.23,1.59,0.447,3.183,0.717,4.765c0.752,4.378,1.729,8.705,2.961,12.974
			c0.43,1.49,0.877,2.974,1.426,4.421c0.898,2.372,1.92,4.7,3.324,6.817c1.375,2.073,3.023,3.898,5.287,5.088
			c2.121,1.115,4.146,1.091,6.168-0.237c1.951-1.281,3.492-2.963,4.873-4.813c2.65-3.549,4.4-7.561,5.996-11.653
			c1.998-5.12,3.605-10.361,4.887-15.701c0.941-3.916,1.621-7.882,2.176-11.871c0.572-4.111,0.861-8.245,1.096-12.386
			c0.031-0.536,0.076-1.072,0.154-1.603c0.127-0.845,0.482-1.552,1.371-1.817c0.9-0.269,1.715-0.068,2.387,0.597
			c0.316,0.314,0.572,0.678,0.789,1.078c0.861,1.586,1.344,3.313,1.834,5.029c1.016,3.554,1.789,7.167,2.537,10.786
			c0.773,3.734,1.533,7.473,2.395,11.187c0.578,2.495,1.074,5.005,1.611,7.508c0.023,0.106-0.008,0.24,0.26,0.334
			c0-1.072,0-2.103,0-3.134c-0.008-5.669,0.1-11.336,0.264-17.003c0.072-2.534,0.219-5.066,0.332-7.6
			c0.027-0.631,0.154-1.244,0.344-1.843c0.467-1.482,1.709-2.066,3.176-1.513c0.879,0.332,1.594,0.932,2.365,1.436
			c1.121,0.733,2.209,1.521,3.316,2.277c1.057,0.721,2.18,1.316,3.391,1.914c0.273-0.793,0.33-1.532,0.428-2.256
			c0.402-3.051,1.037-6.058,1.994-8.975c0.721-2.205,1.68-4.323,3.096-6.211c1.113-1.48,2.492-2.61,4.23-3.165
			c2.398-0.766,4.48-0.023,6.176,1.763c1.803,1.9,2.734,4.247,3.172,6.789c0.492,2.873,0.313,5.702-0.701,8.461
			c-1.66,4.522-5.873,7.848-10.799,8.155c-0.477,0.03-0.953,0.043-1.43,0.056c-0.324,0.009-0.471,0.155-0.49,0.491
			c-0.078,1.189-0.119,2.375-0.104,3.57c0.021,1.638,0.102,3.272,0.219,4.903c0.123,1.663,0.314,3.325,0.613,4.968
			c0.445,2.439,1.072,4.831,2.037,7.121c0.789,1.874,1.711,3.68,3.123,5.174c0.961,1.016,2.068,1.741,3.564,1.309
			c0.576-0.167,1.086-0.485,1.553-0.865c1.24-1.005,2.264-2.205,3.154-3.518c2.639-3.883,4.492-8.133,5.871-12.604
			c0.775-2.513,1.332-5.076,1.744-7.668c0.168-1.057,0.193-2.137,0.305-3.204c0.033-0.298-0.01-0.495-0.285-0.672
			c-1.445-0.933-2.316-2.299-2.824-3.904c-0.654-2.066-0.727-4.158-0.162-6.26c0.031-0.115,0.063-0.23,0.105-0.341
			c0.326-0.821,0.818-1.495,1.77-1.568c0.918-0.071,1.496,0.511,1.926,1.233c0.492,0.826,0.775,1.743,1,2.671
			c0.426,1.742,0.66,3.512,0.721,5.304c0.027,0.792,0.021,0.802,0.822,0.995c1.396,0.337,2.717,0.044,3.998-0.52
			c1.563-0.689,2.941-1.692,4.373-2.602c0.656-0.415,1.314-0.828,2.002-1.184c3.096-1.605,6.094-0.604,7.643,2.538
			c0.453,0.915,0.715,1.887,0.918,2.887c0.721,3.554,0.727,7.163,0.873,10.762c0.066,1.608,0.168,3.216,0.242,4.824
			c0.084,1.818,0.227,3.629,0.494,5.43c0.109,0.73,0.201,1.461,0.508,2.176c0.465-0.249,0.646-0.665,0.863-1.047
			c1.236-2.192,2.121-4.534,2.918-6.912c1.328-3.961,2.313-8.015,3.176-12.1c0.881-4.174,1.586-8.378,2.178-12.601
			c0.254-1.807,0.109-3.635,0.219-5.451c0.193-3.184,0.271-6.377,0.697-9.544c0.098-0.709,0.195-1.419,0.334-2.121
			c0.182-0.924,0.818-1.532,1.596-1.58c0.723-0.045,1.512,0.552,1.801,1.372c0.059,0.168,0.096,0.345,0.125,0.521
			c0.279,1.71,0.375,3.435,0.453,5.163c0.211,4.56,0.086,9.124,0.207,13.685c0.088,3.338,0.293,6.667,0.611,9.991
			c0.232,2.409,0.666,4.783,1.139,7.147c0.303,1.513,0.732,3.014,1.391,4.429c0.201,0.433,0.438,0.846,0.773,1.195
			c0.594,0.619,1.17,0.722,1.93,0.313c0.643-0.344,1.139-0.856,1.584-1.425c1.264-1.614,2.125-3.448,2.885-5.333
			c1.52-3.771,2.525-7.697,3.414-11.653c0.504-2.239,0.947-4.493,1.422-6.738c0.082-0.379,0.188-0.753,0.297-1.125
			c0.309-1.054,1.045-1.733,1.969-1.826c1.041-0.103,1.936,0.437,2.453,1.45c0.633,1.237,0.957,2.569,1.201,3.918
			c0.424,2.346,0.779,4.705,1,7.08c0.193,2.075,0.393,4.153,0.5,6.234c0.221,4.225,0.443,8.452,0.533,12.681
			c0.031,1.571,0.07,3.154-0.031,4.732c-0.064,1.009,0.016,2.022-0.027,3.038c-0.119,2.741-0.34,5.468-0.652,8.194
			c-0.236,2.075-0.49,4.144-0.93,6.185c-0.637,2.969-1.355,5.921-2.34,8.798c-1.414,4.127-3.162,8.108-5.477,11.816
			c-1.805,2.897-3.895,5.571-6.621,7.684c-1.814,1.404-3.758,2.555-6.057,2.929c-3.451,0.561-6.105-1.025-7.285-4.33
			c-0.848-2.375-0.824-4.817-0.301-7.239c1.744-8.056,4.533-15.748,8.26-23.095c1.723-3.396,3.893-6.492,6.553-9.23
			c0.252-0.258,0.5-0.518,0.828-0.674c0.297-0.142,0.584-0.106,0.826,0.13c0.254,0.249,0.24,0.54,0.066,0.816
			c-0.158,0.251-0.336,0.493-0.535,0.715c-2.271,2.552-4.213,5.338-5.82,8.348c-1.631,3.054-3.018,6.221-4.254,9.456
			c-1.479,3.875-2.791,7.802-3.734,11.845c-0.486,2.076-0.752,4.168-0.482,6.298c0.146,1.162,0.43,2.284,1.111,3.27
			c0.926,1.342,2.18,1.893,3.789,1.579c0.98-0.191,1.871-0.599,2.699-1.15c1.838-1.223,3.297-2.833,4.607-4.583
			c2.979-3.977,5.055-8.414,6.652-13.098c0.828-2.431,1.465-4.916,2.002-7.418c0.414-1.947,0.615-3.942,0.873-5.92
			c0.295-2.246,0.502-4.502,0.564-6.767c0.051-1.787,0.152-3.574,0.094-5.363c-0.031-1.012,0.031-2.024,0.023-3.038
			c-0.023-2.982-0.26-5.955-0.332-8.933c-0.088-3.577-0.348-7.145-0.492-10.718c-0.082-2.044-0.211-4.086-0.324-6.292
			c-0.338,0.479-0.395,0.892-0.512,1.275c-1.109,3.65-2.121,7.331-3.49,10.898c-0.727,1.896-1.555,3.744-2.613,5.483
			c-0.623,1.025-1.355,1.965-2.252,2.762c-1.08,0.959-2.35,1.44-3.795,1.192c-1.283-0.22-2.311-0.957-3.156-1.914
			c-1.215-1.375-2.086-2.957-2.771-4.664c-1.447-3.601-2.18-7.361-2.623-11.192c-0.016-0.148-0.031-0.297-0.055-0.444
			c-0.008-0.058-0.037-0.112-0.059-0.174c-0.266-0.013-0.24,0.206-0.264,0.356c-0.754,4.501-1.717,8.957-2.893,13.367
			c-0.777,2.912-1.627,5.802-2.895,8.546c-0.361,0.783-0.799,1.533-1.23,2.282c-0.314,0.548-0.742,1.016-1.254,1.385
			c-0.961,0.693-1.984,0.759-3.029,0.206c-0.986-0.523-1.643-1.376-2.158-2.332c-0.736-1.369-1.244-2.819-1.66-4.327
			c-0.836-3.043-1.131-6.155-1.346-9.275c-0.158-2.318-0.15-4.647-0.266-6.969c-0.08-1.574-0.189-3.152-0.646-4.678
			c-0.285-0.948-0.445-1.043-1.418-0.806c-1.17,0.286-2.209,0.885-3.287,1.39c-1.268,0.594-2.494,1.271-3.824,1.735
			c-1.529,0.535-3.078,0.916-4.717,0.82c-0.617-0.036-0.625-0.015-0.686,0.585c-0.25,2.556-0.662,5.082-1.258,7.583
			c-0.732,3.058-1.744,6.011-3.043,8.868c-1.373,3.018-2.93,5.938-4.773,8.696c-0.832,1.243-1.758,2.409-2.957,3.333
			c-2.451,1.89-5.387,2.141-8.256,0.42c-2.285-1.371-3.775-3.418-5.096-5.635c-2.07-3.474-3.285-7.27-4.105-11.197
			c-0.469-2.245-0.713-4.525-0.781-6.826c-0.068-2.267-0.055-4.529,0.107-6.79c0.025-0.359-0.105-0.519-0.43-0.663
			c-2.963-1.32-5.594-3.166-8.119-5.181c-0.348-0.279-0.721-0.525-1.086-0.784c-0.303-0.214-0.461-0.115-0.586,0.221
			c-0.441,1.189-0.582,2.435-0.684,3.683c-0.617,7.56-0.799,15.131-0.57,22.712c0.098,3.311,0.154,6.622,0.262,9.932
			c0.045,1.43,0.166,2.858,0.256,4.287c0.004,0.089,0.018,0.178,0.021,0.268c0.033,0.815-0.25,1.309-0.854,1.496
			c-0.576,0.18-1.201-0.057-1.584-0.714c-0.465-0.797-0.887-1.624-1.266-2.465c-1.137-2.529-2.25-5.072-3.078-7.722
			c-0.443-1.418-0.922-2.827-1.313-4.265c-0.365-1.35-0.814-2.678-1.162-4.037c-0.658-2.569-1.285-5.146-1.828-7.741
			c-0.564-2.685-1.125-5.37-1.643-8.063c-0.373-1.93-0.674-3.874-1.008-5.811c-0.02-0.108-0.053-0.214-0.08-0.321
			C111.916,150.641,111.885,150.64,111.855,150.639z M153.918,143.619c0-2.06-0.23-3.614-0.908-5.072
			c-0.578-1.243-1.381-2.302-2.643-2.926c-1.016-0.502-1.82-0.316-2.531,0.571c-0.543,0.676-0.982,1.413-1.305,2.226
			c-0.596,1.493-1.109,3.01-1.539,4.561c-0.541,1.951-1.02,3.911-1.385,5.903c-0.268,1.464-0.473,2.936-0.717,4.402
			c-0.105,0.628-0.055,0.726,0.613,0.757c2.475,0.116,4.742-0.493,6.631-2.137C152.779,149.601,153.791,146.562,153.918,143.619z"/>
		<path d="M227.973,121.55c-1.43,0.223-2.836,0.46-4.25,0.657c-1.801,0.251-3.607,0.461-5.43,0.392
			c-0.387-0.015-0.777-0.061-1.154-0.144c-0.682-0.149-1.217-0.75-1.248-1.35c-0.031-0.563,0.398-1.193,1.035-1.429
			c0.615-0.228,1.238-0.446,1.875-0.595c2.381-0.556,4.787-0.964,7.234-1.112c0.564-0.034,1.125-0.138,1.688-0.186
			c0.373-0.031,0.535-0.211,0.516-0.575c-0.08-1.612,0.104-3.216,0.145-4.824c0.053-1.938,0.215-3.87,0.334-5.803
			c0.111-1.786,0.236-3.569,0.381-5.352c0.109-1.396,0.205-2.794,0.381-4.187c0.168-1.328,0.25-2.667,0.355-4.003
			c0.084-1.042,0.271-2.066,0.531-3.076c0.105-0.404,0.285-0.784,0.557-1.112c0.727-0.868,1.693-0.807,2.277,0.155
			c0.217,0.359,0.346,0.755,0.471,1.156c0.477,1.549,0.648,3.149,0.807,4.751c0.254,2.554,0.244,5.116,0.186,7.678
			c-0.064,2.772-0.131,5.543-0.211,8.315c-0.047,1.64-0.119,3.278-0.18,4.917c-0.008,0.238,0.012,0.479-0.012,0.714
			c-0.043,0.446,0.152,0.574,0.576,0.529c1.096-0.116,2.197-0.191,3.291-0.313c0.479-0.053,0.957-0.078,1.43-0.031
			c1.068,0.104,1.545,1.188,0.898,2.044c-0.41,0.543-0.967,0.869-1.648,0.982c-1.41,0.233-2.813,0.5-4.227,0.711
			c-0.406,0.061-0.547,0.184-0.549,0.608c-0.01,1.849-0.053,3.697-0.092,5.544c-0.047,2.383-0.117,4.766-0.152,7.149
			c-0.031,2.235-0.047,4.472-0.039,6.708c0.002,0.717-0.092,1.425-0.09,2.143c0.006,3.517-0.059,7.034-0.039,10.55
			c0.016,2.922,0.049,5.847,0.193,8.765c0.193,3.869,0.412,7.741,1.191,11.552c0.25,1.229,0.584,2.434,1.146,3.563
			c0.094,0.187,0.191,0.374,0.311,0.544c0.432,0.619,0.736,0.664,1.316,0.176c0.736-0.624,1.273-1.414,1.781-2.225
			c1.578-2.518,2.703-5.245,3.678-8.035c2.506-7.164,4.23-14.54,5.928-21.922c0.748-3.254,1.434-6.523,2.158-9.783
			c0.15-0.675,0.211-1.355,0.219-2.042c0.033-3.306,0.031-6.613,0.105-9.918c0.104-4.649,0.203-9.3,0.42-13.944
			c0.201-4.287,0.43-8.577,0.922-12.843c0.254-2.189,0.498-4.386,1.061-6.528c0.127-0.492,0.289-0.972,0.592-1.392
			c0.377-0.528,0.881-0.8,1.537-0.716c0.66,0.085,1.064,0.489,1.277,1.103c0.291,0.833,0.277,1.708,0.301,2.568
			c0.125,4.589,0.125,9.179,0.041,13.769c-0.049,2.683-0.037,5.367-0.074,8.051c-0.041,2.86-0.188,5.721-0.145,8.58
			c0.047,2.922-0.025,5.842-0.023,8.763c0.002,3.129,0.018,6.26-0.102,9.391c-0.09,2.383-0.027,4.771-0.053,7.157
			c-0.029,2.711-0.086,5.423-0.123,8.134c-0.012,0.974,0,1.947,0.131,2.953c0.172-0.52,0.355-1.036,0.514-1.56
			c1.168-3.899,2.74-7.628,4.723-11.184c0.465-0.833,0.975-1.634,1.627-2.344c1.295-1.408,3.238-1.132,4.207,0.682
			c0.354,0.662,0.588,1.374,0.746,2.103c0.361,1.662,0.609,3.342,0.723,5.041c0.236,3.45,0.434,6.903,0.73,10.348
			c0.172,2.016,0.461,4.025,1.084,5.967c0.219,0.683,0.453,1.361,0.875,1.95c0.33,0.458,0.523,0.473,0.936,0.081
			c0.277-0.268,0.51-0.577,0.723-0.905c1.6-2.454,2.545-5.183,3.357-7.964c1.01-3.47,1.623-7.027,2.281-10.575
			c0.5-2.695,0.939-5.401,1.324-8.115c0.084-0.589,0.123-1.186,0.164-1.781c0.027-0.421,0.104-0.833,0.254-1.222
			c0.498-1.297,2.029-1.691,3.094-0.799c0.549,0.459,0.85,1.061,0.953,1.771c0.232,1.596,0.336,3.201,0.328,4.813
			c-0.02,3.847-0.043,7.692,0.088,11.539c0.086,2.53,0.311,5.047,0.508,7.655c0.422-0.237,0.436-0.625,0.549-0.925
			c0.824-2.175,1.498-4.401,2.201-6.618c1.535-4.829,2.951-9.694,4.492-14.522c1.402-4.402,2.91-8.767,4.396-13.14
			c0.365-1.071,0.666-2.162,1.178-3.181c0.432-0.859,1.107-1.343,2.047-1.353c0.91-0.009,1.559,0.502,2.014,1.278
			c0.34,0.579,0.48,1.223,0.598,1.865c0.295,1.645,0.42,3.304,0.451,4.98c0.029,1.459,0.043,2.918,0.029,4.377
			c-0.021,2.206-0.09,4.411-0.131,6.616c-0.012,0.727-0.002,1.453,0.162,2.197c0.23-0.603,0.479-1.2,0.689-1.809
			c1.994-5.728,4.42-11.266,7.271-16.616c0.424-0.792,0.914-1.54,1.555-2.178c1.471-1.463,3.414-1.142,4.34,0.726
			c0.682,1.371,0.793,2.869,0.879,4.354c0.164,2.801,0.027,5.604-0.146,8.4c-0.254,4.046-0.453,8.094-0.404,12.15
			c0.039,3.23,0.291,6.434,1.111,9.569c0.227,0.865,0.531,1.713,1.072,2.446c0.5,0.682,0.857,0.764,1.602,0.38
			c0.652-0.335,1.127-0.881,1.598-1.419c1.279-1.463,2.377-3.059,3.4-4.709c0.191-0.309,0.305-0.634,0.342-1.002
			c0.221-2.291,0.666-4.545,1.277-6.756c0.844-3.047,1.934-6.006,3.451-8.8c0.744-1.372,1.57-2.673,2.592-3.846
			c1.191-1.371,2.551-2.513,4.387-2.927c2.498-0.564,4.424,1.023,4.969,3.226c0.217,0.881,0.193,1.775,0.17,2.668
			c-0.014,0.538-0.258,0.836-0.668,0.936c-0.447,0.108-0.852-0.075-1.055-0.595c-0.275-0.7-0.807-1.166-1.324-1.661
			c-0.297-0.285-0.551-0.264-0.857-0.016c-0.73,0.592-1.291,1.328-1.756,2.126c-1.734,2.975-3.008,6.152-4.021,9.435
			c-1.277,4.127-1.988,8.347-1.896,12.674c0.045,2.152,0.381,4.262,1.391,6.216c0.281,0.545,0.658,0.997,1.104,1.388
			c0.602,0.526,1.129,0.497,1.766,0.006c0.682-0.527,1.098-1.251,1.482-1.993c1.125-2.156,1.789-4.478,2.447-6.802
			c0.961-3.388,1.557-6.858,2.324-10.29c0.109-0.494,0.209-0.994,0.365-1.475c0.326-1.01,0.975-1.719,2.063-1.879
			c1.086-0.16,1.918,0.32,2.521,1.197c0.391,0.567,0.645,1.203,0.832,1.87c1.059,3.756,1.381,7.608,1.613,11.484
			c0.123,2.057,0.158,4.111,0.199,6.167c0.023,1.191,0.004,2.384-0.039,3.574c-0.061,1.697-0.121,3.396-0.256,5.087
			c-0.279,3.539-0.717,7.057-1.447,10.534c-0.586,2.805-1.338,5.565-2.264,8.274c-1.617,4.73-3.703,9.24-6.59,13.342
			c-2.438,3.461-5.268,6.561-8.781,8.962c-2.531,1.731-5.262,3.029-8.379,3.333c-2.35,0.228-4.455-0.349-6.178-1.987
			c-1.328-1.263-1.957-2.902-2.127-4.71c-0.223-2.361,0.199-4.639,1.006-6.848c1.836-5.045,4.877-9.257,8.91-12.773
			c4.232-3.69,8.699-7.07,13.406-10.132c1.975-1.286,3.986-2.515,6.189-3.38c0.498-0.196,0.668-0.489,0.727-0.985
			c0.281-2.399,0.424-4.807,0.545-7.218c0.156-3.097,0.133-6.192,0.064-9.291c-0.041-1.849-0.215-3.688-0.285-5.533
			c-0.014-0.357-0.045-0.711-0.211-1.127c-0.387,0.834-0.557,1.671-0.791,2.479c-0.715,2.461-1.42,4.925-2.318,7.326
			c-0.547,1.458-1.209,2.852-2.166,4.096c-0.713,0.923-1.586,1.596-2.674,2.023c-1.627,0.639-3.148,0.289-4.518-0.603
			c-1.572-1.021-2.73-2.424-3.525-4.167c-0.574-1.26-0.984-2.556-1.314-3.883c-0.195-0.774-0.264-1.582-0.365-2.376
			c-0.037-0.296-0.051-0.592-0.18-0.867c-0.322-0.008-0.371,0.279-0.5,0.452c-0.764,1.03-1.502,2.075-2.365,3.028
			c-2.014,2.219-4.688,2.114-6.723,0.229c-1.143-1.058-1.836-2.417-2.367-3.854c-0.824-2.22-1.238-4.524-1.496-6.877
			c-0.311-2.826-0.402-5.652-0.314-8.486c0.09-2.889,0.246-5.775,0.465-8.658c0.197-2.616,0.395-5.232,0.445-7.856
			c0.004-0.169-0.027-0.339-0.051-0.604c-0.367,0.226-0.496,0.529-0.662,0.788c-0.904,1.409-1.654,2.899-2.389,4.4
			c-2.359,4.828-4.418,9.78-6.031,14.908c-0.668,2.131-1.307,4.279-1.736,6.477c-0.152,0.785-0.164,1.598-0.24,2.399
			c-0.078,0.8-0.176,1.596-0.396,2.373c-0.285,1.003-0.865,1.534-1.715,1.548c-0.859,0.016-1.516-0.553-1.816-1.562
			c-0.322-1.097-0.369-2.229-0.426-3.359c-0.086-1.667-0.246-3.334-0.225-5c0.031-2.62-0.199-5.24,0.035-7.859
			c0.045-0.503,0.016-1.013,0.031-1.52c0.09-2.915,0.186-5.83,0.283-8.874c-0.514,0.702-0.66,1.441-0.898,2.122
			c-1.641,4.668-3.205,9.361-4.586,14.113c-1.154,3.979-2.301,7.959-3.471,11.933c-0.504,1.715-1.039,3.423-1.723,5.078
			c-0.32,0.771-0.67,1.529-1.334,2.091c-0.805,0.679-1.736,0.735-2.635,0.171c-0.885-0.556-1.348-1.417-1.734-2.328
			c-0.783-1.848-1.266-3.782-1.6-5.758c-0.17-1-0.348-1.998-0.371-3.016c-0.01-0.387-0.084-0.768-0.248-1.238
			c-0.316,0.711-0.422,1.387-0.574,2.04c-0.662,2.851-1.475,5.656-2.578,8.367c-0.641,1.578-1.387,3.112-2.639,4.322
			c-1.404,1.357-2.813,1.374-4.279,0.102c-1.094-0.947-1.773-2.169-2.301-3.472c-1.457-3.608-1.949-7.417-2.256-11.26
			c-0.25-3.121-0.293-6.256-0.691-9.365c-0.045-0.352-0.07-0.711-0.25-1.083c-0.467,0.28-0.684,0.747-0.926,1.173
			c-1.625,2.836-2.752,5.885-3.785,8.967c-1.463,4.359-2.564,8.814-3.52,13.31c-0.264,1.239-0.24,2.488-0.299,3.738
			c-0.113,2.381-0.238,4.761-0.391,7.14c-0.037,0.623-0.162,1.242-0.283,1.856c-0.176,0.888-0.842,1.438-1.688,1.433
			c-0.842-0.005-1.543-0.566-1.674-1.451c-0.18-1.236-0.33-2.48-0.424-3.726c-0.17-2.229-0.307-4.459-0.422-6.691
			c-0.156-2.977-0.338-5.952-0.303-8.937c0.021-1.728-0.082-3.457-0.1-5.186c-0.029-2.98-0.039-5.961-0.049-8.942
			c-0.006-1.76,0.002-3.519,0.002-5.279c-0.002-0.115-0.035-0.231-0.07-0.444c-0.285,0.493-0.344,0.965-0.445,1.412
			c-1.277,5.55-2.643,11.077-4.186,16.559c-1.348,4.797-2.947,9.51-5.045,14.04c-0.488,1.057-1.055,2.074-1.734,3.022
			c-0.525,0.735-1.156,1.351-2.006,1.73c-1.059,0.472-2.035,0.348-2.947-0.32c-0.854-0.624-1.537-1.412-2.064-2.329
			c-0.982-1.711-1.738-3.516-2.334-5.4c-0.857-2.708-1.408-5.482-1.807-8.281c-0.309-2.18-0.564-4.371-0.713-6.574
			c-0.238-3.542-0.361-7.088-0.43-10.635c-0.061-3.364-0.033-6.73-0.004-10.094c0.033-3.724,0.107-7.447,0.178-11.17
			c0.02-1.043,0.084-2.085,0.125-3.129C228.061,122.191,228.123,121.923,227.973,121.55z M344.93,184.393
			c-0.15,0.021-0.246,0.014-0.32,0.049c-0.352,0.164-0.705,0.327-1.043,0.514c-3.584,1.975-6.971,4.257-10.25,6.698
			c-3.014,2.243-6.021,4.496-8.611,7.244c-3.443,3.65-6.025,7.766-6.846,12.816c-0.227,1.401-0.184,2.797,0.287,4.15
			c0.334,0.965,0.957,1.708,1.867,2.191c1.299,0.688,2.654,0.562,4.012,0.246c1.949-0.455,3.637-1.444,5.234-2.62
			c2.818-2.075,5.086-4.66,7.074-7.516c2.645-3.799,4.568-7.964,6.064-12.315c1.145-3.326,1.91-6.766,2.465-10.245
			C344.924,185.229,345.043,184.85,344.93,184.393z"/>
		<path d="M142.004,290.648c-0.295,0.07-0.346,0.338-0.48,0.519c-1.031,1.376-2.205,2.601-3.752,3.393
			c-2.682,1.374-5.279,1.231-7.766-0.507c-0.166-0.118-0.297-0.295-0.539-0.345c-0.193,0.152-0.221,0.387-0.254,0.612
			c-0.693,4.658-1.33,9.324-2.285,13.941c-0.744,3.6-1.666,7.14-3.137,10.518c-0.438,1.009-0.949,1.981-1.58,2.9
			c-1.549,2.255-4.365,2.58-6.613,0.387c-1.902-1.858-2.965-4.165-3.742-6.626c-1.145-3.624-1.764-7.354-2.043-11.141
			c-0.076-1.033-0.162-2.064-0.316-3.106c-0.236,0.244-0.268,0.553-0.334,0.842c-0.881,3.805-1.672,7.632-2.879,11.354
			c-0.404,1.249-0.832,2.489-1.424,3.665c-0.432,0.86-0.951,1.647-1.75,2.228c-0.791,0.574-1.641,0.686-2.541,0.38
			c-0.807-0.274-1.471-0.772-2.014-1.431c-1.426-1.734-2.256-3.78-3.012-5.857c-1.109-3.058-1.916-6.198-2.617-9.375
			c-0.617-2.8-1.064-5.622-1.471-8.455c-0.699-4.873-1.039-9.771-1.172-14.691c-0.113-4.203,0.012-8.396,0.264-12.588
			c0.057-0.917,0.199-1.837,0.457-2.731c0.236-0.813,0.688-1.417,1.582-1.48c0.855-0.061,1.379,0.472,1.756,1.166
			c0.475,0.877,0.703,1.837,0.852,2.81c0.279,1.801,0.367,3.618,0.412,5.438c0.049,1.996,0.133,3.99,0.195,5.986
			c0.037,1.25,0.039,2.503,0.104,3.753c0.146,2.917,0.293,5.833,0.52,8.747c0.271,3.508,0.709,6.994,1.17,10.48
			c0.516,3.902,1.109,7.791,2.031,11.622c0.295,1.219,0.617,2.433,1.229,3.539c0.648,1.175,1.158,1.193,1.934,0.09
			c0.711-1.01,1.158-2.152,1.566-3.305c1.314-3.721,2.182-7.562,2.963-11.421c0.561-2.775,1.066-5.561,1.596-8.342
			c0.033-0.176,0.059-0.354,0.104-0.527c0.205-0.796,0.566-1.471,1.479-1.587c0.979-0.124,1.76,0.261,2.285,1.089
			c0.52,0.816,0.758,1.746,0.975,2.675c0.854,3.668,1.139,7.423,1.674,11.14c0.533,3.686,0.99,7.385,2.102,10.958
			c0.162,0.511,0.373,1.006,0.57,1.505c0.111,0.279,0.273,0.524,0.488,0.74c0.473,0.47,0.656,0.495,1.09,0.005
			c0.615-0.697,1.072-1.501,1.465-2.343c1.264-2.711,2.186-5.539,2.928-8.433c1.061-4.134,1.881-8.315,2.525-12.531
			c0.229-1.502,0.436-3.009,0.635-4.517c0.059-0.452,0.195-0.877,0.398-1.274c0.461-0.898,1.58-1.101,2.357-0.451
			c0.35,0.292,0.586,0.677,0.824,1.053c1.691,2.659,5.439,3.509,8.045,1.008c1.928-1.85,3.301-4.056,3.598-6.808
			c0.143-1.305,0.418-2.588,0.801-3.845c0.395-1.305,1.227-2.016,2.314-2c1.098,0.017,1.918,0.735,2.275,2.046
			c0.395,1.449,0.523,2.94,0.459,4.43c-0.127,2.916-0.338,5.829-0.484,8.745c-0.139,2.739-0.309,5.48-0.34,8.221
			c-0.021,2.083-0.02,4.169,0.102,6.257c0.092,1.603,0.031,3.221,0.135,4.827c0.123,1.902,0.268,3.807,0.795,5.655
			c0.156,0.546,0.32,1.092,0.652,1.561c0.281,0.4,0.428,0.416,0.781,0.077c0.746-0.716,1.207-1.624,1.639-2.543
			c1.258-2.689,2.008-5.544,2.686-8.419c0.971-4.124,1.74-8.287,2.451-12.462c0.09-0.534,0.063-1.07,0.057-1.607
			c-0.035-3.606-0.219-7.208-0.195-10.816c0.016-2.295-0.035-4.591-0.059-6.886c0-0.119-0.01-0.238-0.021-0.357
			c-0.063-0.635-0.068-0.662-0.68-0.569c-1.078,0.163-2.143,0.085-3.209-0.075c-0.42-0.063-0.816-0.193-1.182-0.394
			c-1.266-0.694-1.307-2.217-0.074-2.962c0.381-0.23,0.807-0.369,1.248-0.471c1.051-0.245,2.109-0.361,3.188-0.393
			c0.762-0.022,0.779-0.072,0.82-0.845c0.129-2.5,0.297-4.998,0.553-7.488c0.211-2.046,0.523-4.078,1.027-6.076
			c0.096-0.379,0.242-0.737,0.439-1.073c0.361-0.622,0.908-0.968,1.627-0.881c0.695,0.084,1.096,0.564,1.301,1.209
			c0.244,0.774,0.273,1.585,0.359,2.384c0.195,1.809,0.188,3.633,0.336,5.443c0.141,1.697,0.191,3.385,0.094,5.081
			c-0.012,0.207,0.025,0.417,0.039,0.625c0.094,1.214,0.094,1.215,1.354,1.106c1.338-0.115,2.674-0.239,4.012-0.343
			c0.445-0.035,0.895-0.039,1.342-0.021c0.598,0.023,1.018,0.33,1.205,0.9c0.188,0.565,0.02,1.056-0.393,1.471
			c-0.447,0.449-1.037,0.582-1.621,0.693c-1.346,0.256-2.699,0.473-4.047,0.719c-0.555,0.101-1.234,0.019-1.617,0.392
			c-0.412,0.401-0.111,1.082-0.115,1.632c-0.023,3.071,0.012,6.142,0.107,9.211c0.059,1.847,0.033,3.696,0.076,5.544
			c0.053,2.296,0.133,4.591,0.207,6.887c0.117,3.603,0.344,7.201,0.564,10.798c0.172,2.767,0.303,5.538,0.547,8.299
			c0.254,2.878,0.57,5.754,1.145,8.592c0.131,0.645,0.318,1.276,0.59,1.875c0.188,0.415,0.389,0.458,0.779,0.206
			c0.59-0.378,1.02-0.909,1.402-1.486c1.361-2.047,2.396-4.263,3.332-6.522c2.793-6.764,4.959-13.736,6.723-20.832
			c0.523-2.11,0.893-4.261,1.293-6.401c0.119-0.641,0.129-1.307,0.133-1.962c0.014-1.697,0.006-3.395,0.025-5.091
			c0.021-1.967,0.049-3.935,0.137-5.898c0.105-2.293,0.016-4.593,0.27-6.879c0.074-0.652,0.125-1.307,0.225-1.955
			c0.09-0.592,0.271-1.165,0.607-1.67c0.777-1.172,2.332-1.102,2.992,0.137c0.256,0.477,0.404,0.995,0.52,1.52
			c0.541,2.489,0.723,5.012,0.717,7.553c-0.006,2.029,0.031,4.058,0,6.085c-0.051,3.218-0.141,6.436-0.223,9.653
			c-0.029,1.105,0.064,2.208,0.139,3.303c0.092,1.312,0.078,2.622,0.121,3.931c0.068,2.025,0.088,4.054,0.08,6.08
			c-0.016,3.904-0.068,7.809-0.285,11.708c-0.002,0.049,0.033,0.1,0.102,0.289c0.227-0.479,0.418-0.866,0.596-1.26
			c1.482-3.29,2.941-6.591,4.635-9.781c2.031-3.826,4.348-7.474,6.855-11.002c0.949-1.336,1.863-2.701,3.002-3.89
			c0.205-0.214,0.42-0.427,0.66-0.598c1.475-1.044,2.982-0.746,4.006,0.928c0.723,1.184,0.936,2.514,1.018,3.854
			c0.191,3.213,0.188,6.429,0.105,9.647c-0.035,1.397,0.098,2.798,0.156,4.198c0.123,2.896,0.453,5.764,1.223,8.565
			c0.316,1.149,0.729,2.261,1.357,3.292c0.914,1.499,2.242,1.906,3.809,1.13c1.314-0.65,2.375-1.626,3.285-2.727
			c2.967-3.584,5.313-7.547,6.994-11.892c0.248-0.639,0.455-1.291,0.57-1.973c0.105-0.627,0.135-1.242-0.033-1.861
			c-0.047-0.172-0.066-0.352-0.09-0.53c-0.084-0.655,0.096-1.085,0.539-1.297c0.438-0.208,0.943-0.1,1.377,0.354
			c0.621,0.65,0.908,1.458,1.01,2.338c0.193,1.648-0.221,3.201-0.787,4.72c-1.121,3.003-2.668,5.787-4.432,8.455
			c-1.1,1.666-2.203,3.335-3.494,4.86c-1.309,1.543-2.859,2.793-4.793,3.487c-2.193,0.787-4.23,0.432-6.07-0.975
			c-1.752-1.341-2.898-3.143-3.729-5.155c-1.211-2.93-1.697-6.013-1.883-9.155c-0.078-1.308-0.221-2.62-0.191-3.926
			c0.086-3.663,0.141-7.33,0.582-10.977c0.096-0.813,0.213-1.642,0.09-2.531c-0.447,0.137-0.684,0.44-0.938,0.713
			c-1.877,2.017-3.459,4.259-4.971,6.55c-2.932,4.443-5.43,9.117-7.441,14.05c-1.033,2.54-2.076,5.076-3.121,7.612
			c-0.123,0.303-0.246,0.612-0.422,0.887c-0.67,1.057-1.889,1.125-2.697,0.167c-0.5-0.591-0.678-1.325-0.854-2.042
			c-0.676-2.754-1.002-5.563-1.262-8.382c-0.389-4.19-0.426-8.394-0.451-12.598c-0.002-0.318,0.164-0.645-0.029-0.966
			c-0.295-0.009-0.205,0.243-0.238,0.374c-1.307,5.02-2.615,10.039-4.24,14.968c-0.924,2.802-1.875,5.594-3.107,8.284
			c-0.627,1.367-1.395,2.635-2.385,3.766c-0.598,0.684-1.295,1.231-2.164,1.537c-1.248,0.438-2.34,0.143-3.326-0.687
			c-1.207-1.017-1.857-2.405-2.41-3.817c-0.707-1.802-1.258-3.656-1.699-5.549c-0.707-3.021-1.287-6.063-1.697-9.133
			c-0.24-1.801-0.326-3.623-0.467-5.437c-0.074-0.945-0.121-1.893-0.191-3.015c-0.24,0.468-0.271,0.816-0.334,1.158
			c-0.781,4.375-1.6,8.743-3.01,12.973c-0.473,1.418-1.004,2.81-1.932,4.007c-1.459,1.885-3.541,1.998-5.244,0.331
			c-1.629-1.594-2.504-3.613-3.25-5.698c-0.916-2.568-1.412-5.247-1.658-7.946c-0.191-2.098-0.258-4.218-0.148-6.339
			c0.08-1.576-0.006-3.16,0.086-4.738c0.15-2.559,0.209-5.125,0.457-7.678C142.059,290.812,142.023,290.733,142.004,290.648z"/>
		<path d="M354.336,294.396c-0.316,0.2-0.305,0.503-0.436,0.729c-0.164,0.281-0.391,0.453-0.725,0.436
			c-0.371-0.019-0.594-0.238-0.719-0.576c-0.396-1.07,0.586-2.751,1.713-2.934c0.439-0.071,0.824,0.076,1.178,0.318
			c0.557,0.379,0.941,0.898,1.258,1.486c0.773,1.437,1.16,3.003,1.531,4.569c0.391,1.653,0.66,3.33,0.84,5.023
			c0.305,2.882-0.156,5.642-1.225,8.316c-1.119,2.8-2.711,5.307-4.74,7.529c-0.955,1.044-2.074,1.855-3.447,2.325
			c-2.441,0.836-4.805,0.182-6.43-1.807c-1.451-1.774-2.24-3.844-2.818-6.021c-0.617-2.315-0.861-4.688-1.123-7.059
			c-0.018-0.172-0.053-0.343-0.105-0.681c-0.322,0.528-0.363,0.987-0.498,1.407c-0.15,0.454-0.281,0.912-0.414,1.371
			c-1.213,4.182-2.498,8.341-4.32,12.307c-0.938,2.035-1.98,4.012-3.518,5.681c-0.326,0.354-0.678,0.675-1.084,0.929
			c-1.402,0.875-2.844,0.777-4.162-0.222c-1.082-0.82-1.789-1.913-2.34-3.114c-0.854-1.854-1.357-3.813-1.635-5.832
			c-0.477-3.474-0.313-6.961-0.227-10.446c0.084-3.309,0.486-6.596,0.652-9.899c0.023-0.458,0.193-0.909-0.016-1.428
			c-0.211,0.38-0.424,0.757-0.629,1.14c-1.635,3.048-3.24,6.116-5.381,8.856c-1.328,1.703-2.832,3.227-4.629,4.445
			c-0.816,0.555-1.672,1.043-2.615,1.349c-0.389,0.126-0.582,0.286-0.566,0.744c0.113,3.731-0.668,7.287-2.229,10.667
			c-1.225,2.654-2.799,5.069-5.154,6.874c-1.717,1.316-3.623,2.061-5.838,1.602c-1.197-0.249-2.225-0.836-3.121-1.658
			c-2.223-2.039-3.373-4.64-3.92-7.549c-0.223-1.202-0.357-2.417-0.436-3.635c-0.051-0.804,0.186-1.601,0.096-2.409
			c-0.016-0.139-0.021-0.28-0.035-0.462c-0.363,0.038-0.496,0.288-0.666,0.472c-2.111,2.316-4.057,4.771-5.992,7.234
			c-0.92,1.173-1.814,2.367-2.746,3.531c-0.275,0.343-0.42,0.689-0.457,1.127c-0.18,2.109-0.309,4.226-0.645,6.318
			c-0.377,2.353-0.717,4.709-1.197,7.047c-0.488,2.366-0.982,4.725-1.666,7.043c-1.172,3.986-2.631,7.859-4.678,11.485
			c-0.967,1.713-2.068,3.346-3.559,4.675c-0.723,0.645-1.504,1.169-2.461,1.396c-1.363,0.324-2.477-0.095-3.332-1.174
			c-0.789-0.994-1.068-2.19-1.172-3.42c-0.24-2.873,0.313-5.643,1.16-8.366c1.24-3.984,3.125-7.669,5.254-11.237
			c1.592-2.667,3.383-5.199,5.23-7.691c0.367-0.493,0.59-0.993,0.639-1.622c0.172-2.17,0.422-4.334,0.594-6.504
			c0.146-1.87,0.162-3.751,0.35-5.617c0.252-2.493,0.201-5.001,0.498-7.491c0.145-1.211,0.154-2.439,0.227-3.66
			c0.158-2.768,0.309-5.536,0.59-8.294c0.01-0.086,0.059-0.178-0.086-0.289c-0.205,0.202-0.242,0.492-0.332,0.752
			c-1.469,4.224-2.861,8.476-4.496,12.641c-1.492,3.804-3.094,7.56-5.129,11.114c-0.639,1.114-1.324,2.2-2.293,3.07
			c-0.426,0.382-0.891,0.697-1.453,0.847c-1.279,0.339-2.301-0.143-3.123-1.063c-0.822-0.922-1.309-2.049-1.74-3.203
			c-0.725-1.936-1.113-3.951-1.486-5.972c-0.223-1.207-0.275-2.435-0.293-3.653c-0.051-3.488-0.051-6.976-0.031-10.464
			c0.014-2.532,0.094-5.064,0.145-7.59c-0.311-0.127-0.391,0.136-0.502,0.273c-1.006,1.222-1.967,2.478-2.592,3.95
			c-0.152,0.36-0.375,0.614-0.775,0.644c-0.461,0.035-0.857-0.352-0.84-0.851c0.014-0.355,0.102-0.705,0.244-1.039
			c0.973-2.284,2.082-4.493,3.557-6.499c0.666-0.907,1.516-1.507,2.719-1.444c0.76,0.039,1.373,0.339,1.883,0.895
			c0.701,0.77,1.082,1.692,1.361,2.682c0.549,1.942,0.639,3.941,0.729,5.934c0.086,1.962,0.113,3.931,0.068,5.894
			c-0.02,0.922-0.039,1.847-0.039,2.768c0,2.114,0.107,4.228,0.117,6.342c0.01,2.174-0.064,4.35-0.061,6.524
			c0,0.922,0.051,1.85,0.24,2.758c0.094,0.456,0.217,0.503,0.609,0.249c0.635-0.412,1.121-0.98,1.568-1.579
			c1.365-1.826,2.385-3.852,3.334-5.909c3.793-8.221,6.795-16.736,9.4-25.396c0.328-1.089,0.447-2.22,0.662-3.331
			c0.107-0.56,0.25-1.107,0.422-1.643c0.246-0.765,0.77-1.276,1.605-1.363c0.852-0.088,1.496,0.25,1.961,0.979
			c0.598,0.938,0.793,1.994,0.891,3.063c0.205,2.202,0.199,4.409,0.037,6.613c-0.195,2.676-0.412,5.352-0.611,8.027
			c-0.18,2.408-0.385,4.814-0.512,7.225c-0.107,2.055-0.299,4.104-0.414,6.156c-0.092,1.632-0.279,3.264-0.275,4.964
			c0.418-0.093,0.563-0.441,0.758-0.697c1.666-2.181,3.393-4.314,5.191-6.387c1.096-1.264,2.248-2.474,3.527-3.553
			c0.322-0.272,0.471-0.588,0.531-0.991c0.701-4.677,1.977-9.198,3.699-13.598c0.953-2.431,2.209-4.693,3.809-6.753
			c0.691-0.895,1.564-1.635,2.496-2.293c0.43-0.304,0.926-0.413,1.441-0.39c0.98,0.042,1.67,0.763,1.67,1.743
			c0,0.328-0.021,0.669-0.178,0.961c-0.686,1.294-1.146,2.685-1.693,4.034c-1.129,2.788-2.277,5.57-3.215,8.435
			c-0.881,2.697-1.6,5.434-2.051,8.231c-0.355,2.206-0.521,4.433-0.49,6.676c0.021,1.654,0.213,3.271,0.68,4.853
			c0.287,0.979,0.695,1.905,1.42,2.65c0.887,0.913,1.877,1.071,3.012,0.491c1.082-0.553,1.949-1.363,2.693-2.311
			c1.973-2.513,3.131-5.395,3.867-8.473c0.32-1.343,0.451-2.699,0.402-4.08c-0.016-0.482-0.148-0.742-0.654-0.889
			c-1.104-0.323-1.949-1.007-2.467-2.058c-0.561-1.141-0.367-2.222,0.357-3.197c0.859-1.16,2.428-1.191,3.424-0.118
			c0.664,0.716,1.045,1.587,1.342,2.501c0.391,1.207,0.393,1.215,1.572,0.735c1.633-0.666,2.971-1.752,4.193-2.995
			c1.303-1.324,2.404-2.809,3.396-4.375c2.002-3.159,3.689-6.477,4.98-9.99c0.627-1.708,1.176-3.438,1.369-5.264
			c0.063-0.59,0.211-1.174,0.473-1.717c0.594-1.235,1.992-1.649,3.18-0.975c1.063,0.602,1.473,1.595,1.703,2.707
			c0.297,1.446,0.229,2.908,0.172,4.368c-0.061,1.579-0.285,3.145-0.43,4.717c-0.402,4.361-0.752,8.724-0.904,13.105
			c-0.096,2.749,0.123,5.478,0.195,8.216c0.041,1.579,0.049,3.16,0.273,4.729c0.084,0.593,0.209,1.173,0.42,1.735
			c0.139,0.368,0.369,0.428,0.693,0.232c0.736-0.442,1.246-1.108,1.727-1.791c1.291-1.842,2.252-3.863,3.09-5.938
			c1.936-4.791,3.465-9.716,4.656-14.741c0.713-3.016,1.342-6.054,1.715-9.137c0.025-0.207,0.053-0.417,0.109-0.616
			c0.209-0.721,0.686-1.191,1.414-1.351c0.734-0.161,1.336,0.106,1.84,0.66c0.623,0.688,0.746,1.552,0.83,2.408
			c0.275,2.818,0.342,5.65,0.523,8.474c0.154,2.406,0.332,4.816,0.754,7.2c0.369,2.085,0.768,4.159,1.465,6.166
			c0.586,1.693,1.414,2.055,2.99,1.21c0.898-0.481,1.689-1.128,2.322-1.936c3.221-4.105,4.883-8.718,4.396-13.977
			c-0.207-2.228-0.623-4.429-1.41-6.541C354.688,294.922,354.59,294.638,354.336,294.396z M270.432,338.058
			c-0.379,0.224-0.523,0.526-0.697,0.788c-1.838,2.752-3.52,5.6-5.016,8.553c-1.684,3.332-3.127,6.758-3.836,10.45
			c-0.266,1.382-0.365,2.776-0.256,4.18c0.057,0.715,0.188,1.417,0.539,2.058c0.459,0.836,0.93,0.956,1.744,0.432
			c0.148-0.096,0.283-0.215,0.422-0.328c0.803-0.65,1.355-1.5,1.869-2.373c2.133-3.627,3.191-7.617,3.85-11.725
			c0.402-2.497,0.721-5.009,1.02-7.521C270.244,341.104,270.311,339.624,270.432,338.058z"/>
		<path d="M132.232,230.201c-0.4,1.329-0.758,2.583-1.152,3.827c-1.193,3.762-2.793,7.352-4.586,10.861
			c-1.088,2.126-2.275,4.196-3.645,6.15c-0.906,1.292-1.877,2.544-3.15,3.52c-2.303,1.765-4.785,1.616-6.84-0.438
			c-1.029-1.028-1.742-2.262-2.299-3.594c-1.559-3.723-2.332-7.627-2.695-11.628c-0.342-3.775-0.377-7.555-0.275-11.343
			c0.074-2.802,0.234-5.596,0.439-8.391c0.15-2.02,0.322-4.039,0.516-6.054c0.148-1.538,0.434-3.062,0.662-4.592
			c0.014-0.087,0.047-0.172,0.074-0.257c0.369-1.139,1.184-1.819,2.102-1.75c0.918,0.069,1.814,0.957,2.041,2
			c0.389,1.787,0.422,3.597,0.426,5.416c0.004,1.191-0.004,2.381-0.047,3.569c-0.098,2.62-0.213,5.239-0.471,7.851
			c-0.174,1.778-0.227,3.569-0.328,5.354c-0.227,4.019-0.264,8.041-0.072,12.061c0.119,2.502,0.293,5.005,1.064,7.417
			c0.238,0.741,0.516,1.465,0.979,2.1c0.814,1.118,1.715,1.347,2.959,0.74c1.098-0.536,1.953-1.384,2.686-2.324
			c3.221-4.122,5.527-8.762,7.557-13.55c0.98-2.309,1.791-4.675,2.43-7.101c0.295-1.124,0.311-1.151-0.666-1.845
			c-1.195-0.849-2.268-1.836-3.344-2.827c-1.561-1.438-2.465-3.225-2.691-5.309c-0.191-1.749,0.182-3.451,0.902-5.05
			c0.438-0.977,0.998-1.898,1.721-2.707c0.465-0.518,0.99-0.953,1.613-1.255c1.316-0.641,2.697-0.293,3.58,0.887
			c0.709,0.949,1.115,2.039,1.379,3.179c0.428,1.843,0.539,3.719,0.463,5.602c-0.033,0.863-0.023,1.733-0.191,2.586
			c-0.092,0.471,0.086,0.735,0.482,1.024c2.865,2.091,5.666,4.262,8.07,6.896c1.775,1.946,3.314,4.058,4.48,6.429
			c0.092,0.187,0.201,0.366,0.307,0.547c0.377,0.655,0.379,0.657,1.076,0.419c0.598-0.204,1.209-0.327,1.842-0.3
			c0.266,0.011,0.533,0.063,0.789,0.139c0.377,0.112,0.635,0.361,0.57,0.788c-0.059,0.386-0.361,0.527-0.711,0.565
			c-0.236,0.026-0.477,0.01-0.713,0.028c-0.328,0.024-0.648,0.06-0.965,0.176c-0.93,0.342-0.908,0.365-0.561,1.261
			c0.744,1.926,1.227,3.926,1.418,5.983c0.266,2.824,0.047,5.612-0.98,8.271c-1.092,2.826-2.852,5.099-5.791,6.219
			c-1.576,0.601-3.143,0.646-4.619-0.342c-1.16-0.776-1.768-1.916-2.09-3.221c-0.686-2.779-0.152-5.396,1.189-7.858
			c1.332-2.444,2.984-4.678,4.801-6.779c0.441-0.509,0.48-0.868,0.207-1.468c-1.127-2.463-2.674-4.635-4.412-6.691
			c-1.354-1.599-2.928-2.97-4.436-4.411C133.027,230.694,132.711,230.419,132.232,230.201z M143.293,244.837
			c-0.289-0.014-0.369,0.174-0.473,0.305c-1.434,1.793-2.762,3.657-3.848,5.686c-0.613,1.146-1,2.356-1.119,3.644
			c-0.117,1.27,0.055,2.5,0.682,3.628c0.631,1.13,1.563,1.397,2.715,0.797c0.234-0.122,0.451-0.286,0.654-0.457
			c0.871-0.733,1.396-1.7,1.734-2.76c0.941-2.95,0.779-5.928,0.156-8.908C143.656,246.114,143.459,245.469,143.293,244.837z
			 M131.686,222.708c0.074-0.158,0.137-0.232,0.141-0.311c0.117-2.121,0.018-4.229-0.535-6.29c-0.207-0.773-0.492-1.534-0.982-2.187
			c-0.365-0.486-0.514-0.477-0.852,0.02c-0.641,0.941-0.842,2.029-0.955,3.124c-0.104,0.976-0.18,1.999,0.309,2.888
			C129.469,221.146,130.525,221.959,131.686,222.708z"/>
		<path d="M106.805,194.729c0.039-1.45,0.473-2.7,1.805-3.476c1.111-0.647,2.34-0.375,3.055,0.699
			c0.188,0.28,0.395,0.488,0.68,0.668c2.156,1.357,1.777,4.631,0.127,5.766c-1.385,0.953-3.248,0.761-4.525-0.633
			C107.178,196.917,106.773,195.892,106.805,194.729z"/>
		<path d="M280.295,126.505c-0.016-1.689,1.166-3.355,2.762-3.894c1.604-0.541,3.01,0.457,3.24,2.157
			c0.189,1.389,0.033,2.657-0.701,3.851c-0.701,1.138-2.145,1.566-3.342,0.98C280.822,128.898,280.311,128.091,280.295,126.505z"/>
		<path d="M140.42,269.26c0.023-0.595,0.086-1.005,0.209-1.406c0.432-1.415,1.248-1.849,2.734-1.764
			c2.178,0.124,3.316,2.209,3.051,3.939c-0.164,1.08-1.07,2.218-2.049,2.475c-1.262,0.332-2.309-0.065-3.111-1.031
			C140.695,270.8,140.365,269.996,140.42,269.26z"/>
	</g>
	<path fill="#C77C31" d="M219.188,92.37c-1.621-3.595-5.107-5.929-8.828-6.941c-2.342-0.637-4.824-0.776-7.23-0.507
		c-1.604,0.179-3.244,0.977-4.83,1.446c0.334-1.875,1.1-3.888,1.098-5.714c-0.004-2.438-0.447-4.856-1.41-7.1
		c-1.377-3.213-3.785-6.049-6.938-7.633c-5.752-2.889-12.783,0.241-17.029,4.468c-0.07,0.072-0.139,0.146-0.209,0.219
		c-3.244-0.055-6.488,1.025-9.139,2.886c-1.59,1.117-2.961,2.491-4.125,4.046c-0.854,1.144-1.563,2.36-2.174,3.65
		c-0.258,0.547-0.439,1.283-0.656,1.981c-0.979-1.271-1.85-2.845-2.992-3.853c-1.65-1.455-3.5-2.641-5.539-3.475
		c-3.244-1.327-6.963-1.754-10.289-0.461c-8.244,3.203-9.813,13.732-7.84,21.263c2.109,8.047,7.092,15.654,13.244,21.191
		c3.342,3.008,7.016,5.704,10.857,8.038c2.045,1.243,4.967,3.326,7.512,3.284l0.014-0.001c0.09-0.002,0.174-0.017,0.258-0.03
		c0.047-0.008,0.09-0.011,0.137-0.022c0.014-0.003,0.025-0.003,0.039-0.006c2.785-0.741,5.557-4.392,7.541-6.865
		c1.992,0.446,4.301,0.438,5.969,0.537c4.738,0.282,9.533,0.133,14.23-0.554c7.498-1.096,15.105-4.28,21.039-9.021
		C217.83,108.453,222.633,100.012,219.188,92.37z M206.07,113.154c-5.559,3.327-11.73,5.435-18.184,6.062
		c-3.736,0.363-7.514,0.419-11.26,0.196c-0.967-0.058-2.25-0.041-3.504-0.154c-0.66-0.06-1.311-0.157-1.902-0.32
		c-0.385-0.106-0.729-0.253-1.049-0.423c-0.027-0.072-0.059-0.158-0.09-0.264c-0.043-0.14-0.074-0.281-0.111-0.422
		c-0.133-0.5-0.248-1.004-0.354-1.51c-0.377-1.813-0.635-3.652-0.84-5.492c-0.592-5.325-0.74-10.723-0.334-16.068
		c0.484-6.371,2.244-15.029,6.662-20.736c0.385-0.498,0.789-0.974,1.217-1.424c0.43-0.452,0.883-0.875,1.357-1.271
		c2.23-1.866,4.951-3.076,8.27-3.245c3.469-0.178,6.563,2.483,8.225,5.313c1.295,2.207,1.854,4.717,1.865,7.259
		c0.012,2.596-1.459,5.258-1.232,7.737c0.08,0.873,0.705,1.721,1.68,1.679c1.777-0.078,3.32-1.101,5.057-1.494
		c2.285-0.517,4.711-0.597,7.012-0.127c3.67,0.748,7.184,2.976,8.08,6.816C218.451,103.044,212.139,109.522,206.07,113.154z
		 M163.035,125.186c-0.178,0.156-0.623,0.429-0.82,0.58c-1.771-0.247-3.99-1.958-5.363-2.792c-3.154-1.918-6.178-4.081-8.988-6.477
		c-5.135-4.377-9.188-9.778-11.9-15.969c-2.881-6.577-4.482-17.8,3.502-21.748c3.363-1.662,7.443-0.646,10.508,1.186
		c1.557,0.93,2.951,2.113,4.145,3.477c1.152,1.32,1.799,2.91,3.186,3.982c0.543,0.419,1.6,0.249,2.035-0.263
		c1.518-1.782,1.824-4.406,3.08-6.426c1.311-2.106,3.055-3.928,5.223-5.158c0.959-0.543,2.053-0.99,3.195-1.285
		c-6.371,9.619-6.566,23.467-5.633,34.33c0.281,3.261,0.146,9.173,2.318,12.037c-0.711,0.788-1.434,1.565-2.176,2.321
		C164.598,123.741,163.832,124.479,163.035,125.186z"/>
	<g>
		<path fill="#C77C31" d="M77.967,222.41c0.324-1.27,4.504-1.293,9.391-0.318c4.887,0.982,8.732,2.611,8.545,3.908
			c-0.186,1.286-4.449,1.734-9.473,0.725C81.406,225.722,77.643,223.668,77.967,222.41z"/>
	</g>
	<g>
		<path fill="#C77C31" d="M74.602,242.065c-0.666-1.109,2.625-4.318,7.59-6.721c4.963-2.411,9.521-3.009,9.977-1.797
			c0.467,1.229-3.166,3.739-7.914,6.049C79.5,241.894,75.279,243.192,74.602,242.065z"/>
	</g>
	<g>
		<path fill="#C77C31" d="M83.977,255.925c-0.541-0.354-0.445-1.598,0.246-3.308c0.688-1.706,1.992-3.864,3.795-5.955
			c1.803-2.089,3.746-3.698,5.332-4.629c1.59-0.936,2.807-1.212,3.236-0.729c0.859,1.003-1.633,4.533-4.99,8.444
			C88.223,253.642,85.096,256.628,83.977,255.925z"/>
	</g>
	<g>
		
			<ellipse transform="matrix(0.6905 -0.7233 0.7233 0.6905 -54.0274 322.404)" fill="#C77C31" cx="349.756" cy="224.34" rx="13.591" ry="2.363"/>
	</g>
	<g>
		<path fill="#C77C31" d="M356.873,237.614c0.232,1.292-2.65,2.888-6.332,3.982c-3.686,1.082-6.971,1.309-7.479,0.097
			c-0.504-1.194,2.18-3.464,6.141-4.629C353.162,235.891,356.648,236.338,356.873,237.614z"/>
	</g>
	<g>
		<path fill="#C77C31" d="M357.99,253.651c-0.379,1.256-3.449,1.436-6.938,0.741c-3.488-0.705-6.252-2.056-6.117-3.361
			c0.131-1.292,3.313-2.025,7.047-1.272C355.717,250.504,358.367,252.409,357.99,253.651z"/>
	</g>
	<g>
		<path fill="#C77C31" d="M255.412,345.103c-10.023,0.133-17.639,6.208-26.018,10.842c-4.197,2.323-8.814,4.318-13.727,3.814
			c-3.656-0.375-6.961-2.374-8.656-5.477c3.551-0.631,8.324-1.852,10.051-5.334c3.322-6.7-5.66-10.037-10.615-7.804
			c-4.209,1.897-6.143,5.84-5.982,9.904c-2.988,0.011-5.998-0.29-8.852-0.673c-10.059-1.348-19.75-4.516-29.713-6.364
			c-7.723-1.433-16.424-2.487-23.916,0.501c-0.992-0.877-2.047-1.666-3.107-2.346c-14.754-9.464-34.996-6.649-47.588,5.056
			c-0.994,0.924-0.309,2.154,0.701,2.618c1.301,0.597,2.883-0.151,3.822-1.024c6.176-5.74,14.625-8.64,23.016-8.34
			c6.201,0.221,13.602,2.285,18.555,6.629c-4.85,3.816-9.223,11.021-5.314,16.535c4.121,5.813,12.814,0.593,14.883-4.327
			c1.805-4.295,0.449-8.436-2.162-11.822c7.492-2.653,17.49-0.039,24.541,1.546c9.621,2.162,19.168,5.073,29.055,5.748
			c2.279,0.156,4.58,0.211,6.869,0.115c0.342,0.903,0.775,1.784,1.328,2.612c4.912,7.346,15.227,7.269,22.695,4.619
			c10.195-3.617,18.348-12.922,29.654-13.072C258.012,349.017,259.09,345.054,255.412,345.103z M135.865,361.425
			c-3.154,1.746-3.773-2.14-3.49-4.458c0.322-2.636,1.813-5.041,3.781-6.786c0.137,0.194,0.283,0.382,0.414,0.583
			C138.336,353.538,139.566,359.376,135.865,361.425z M208.379,344.773c1.502-0.648,3.107-0.307,3.598,1.58
			c0.617,2.371-1.816,3.245-3.664,3.745c-0.801,0.217-1.615,0.386-2.439,0.523C205.654,348.429,206.184,345.721,208.379,344.773z"/>
		<path fill="#C77C31" d="M364.807,331.875c-1.158-0.485-2.922,0.346-3.822,1.024c-9.035,6.808-21.691,5.257-31.674,10.102
			c-0.506,0.247-1.008,0.509-1.504,0.785c-3.699-1.702-7.865-2.71-10.805-3.318c-12.352-2.555-25.072-1.355-36.908,2.862
			c-0.82,0.293-2.098,1.209-1.441,2.168c0.662,0.968,2.783,0.336,3.578,0.053c10.496-3.741,21.908-4.355,32.766-1.864
			c2.883,0.661,6.018,1.465,8.793,2.829c-1.662,1.379-3.127,2.982-4.27,4.824c-1.813,2.917-3.748,8.195-1.236,11.28
			c2.285,2.806,7.025,2.119,9.963,0.948c3.625-1.445,7.264-4.48,7.838-8.549c0.596-4.227-1.738-7.284-5.113-9.504
			c3.061-1.663,6.541-2.577,9.963-3.3c8.611-1.819,17.16-2.985,24.385-8.429C366.367,332.995,365.686,332.243,364.807,331.875z
			 M328.119,349.515c1.379,1.374,2.498,3.069,2.615,5.071c0.156,2.656-2.123,6.774-5.145,6.882c-3.48,0.124-3.143-4.25-2.58-6.44
			c0.605-2.352,1.912-4.479,3.586-6.227c0.109-0.115,0.225-0.22,0.336-0.331C327.346,348.798,327.746,349.142,328.119,349.515z"/>
	</g>
</g>
</svg>
